<?xml version="1.0" encoding="utf-8"?>
<!-- Generator: Adobe Illustrator 19.0.0, SVG Export Plug-In . SVG Version: 6.00 Build 0)  -->
<svg version="1.1" id="Layer_1" xmlns="http://www.w3.org/2000/svg" xmlns:xlink="http://www.w3.org/1999/xlink" 	 viewBox="0 0 288 288" >
<style type="text/css">
	.st0{opacity:0.7;}
	.st1{fill:#595959;}
	.st2{fill-rule:evenodd;clip-rule:evenodd;fill:url(#XMLID_5_);}
	.st3{fill:url(#XMLID_6_);}
	.st4{fill-rule:evenodd;clip-rule:evenodd;fill:url(#XMLID_194_);}
	.st5{fill:url(#XMLID_195_);}
	.st6{fill:#D6D6D6;}
	.st7{fill-rule:evenodd;clip-rule:evenodd;fill:#D6D6D6;}
</style>
<g id="XMLID_1_">
	<g id="XMLID_3_">
		<g id="XMLID_4_" class="st0">
			<path id="XMLID_7_" class="st1" d="M239.5,199.9c0,4.1-3.4,7.5-7.5,7.5H51c-4.1,0-7.5-3.4-7.5-7.5V92.8c0-4.1,3.4-7.5,7.5-7.5
				h181c4.1,0,7.5,3.4,7.5,7.5V199.9z"/>
		</g>
		<g id="XMLID_8_">
			<linearGradient id="XMLID_5_" gradientUnits="userSpaceOnUse" x1="105.1209" y1="239.0277" x2="179.7123" y2="48.8726">
				<stop  offset="0" style="stop-color:#070707"/>
				<stop  offset="1" style="stop-color:#404040"/>
			</linearGradient>
			<path id="XMLID_9_" class="st2" d="M239.5,199.9c0,4.1-3.4,7.5-7.5,7.5H51c-4.1,0-7.5-3.4-7.5-7.5V92.8c0-4.1,3.4-7.5,7.5-7.5
				h181c4.1,0,7.5,3.4,7.5,7.5V199.9z"/>
			<linearGradient id="XMLID_6_" gradientUnits="userSpaceOnUse" x1="237.9872" y1="143.8712" x2="-56.6209" y2="153.6917">
				<stop  offset="0" style="stop-color:#000000"/>
				<stop  offset="0.258" style="stop-color:#020202"/>
				<stop  offset="0.38" style="stop-color:#0A0A0A"/>
				<stop  offset="0.4735" style="stop-color:#171717"/>
				<stop  offset="0.5526" style="stop-color:#292929"/>
				<stop  offset="0.6224" style="stop-color:#414141"/>
				<stop  offset="0.6858" style="stop-color:#5E5E5E"/>
				<stop  offset="0.7443" style="stop-color:#818181"/>
				<stop  offset="0.799" style="stop-color:#AAAAAA"/>
				<stop  offset="0.8486" style="stop-color:#D7D7D7"/>
				<stop  offset="0.8871" style="stop-color:#FFFFFF"/>
			</linearGradient>
			<path id="XMLID_10_" class="st3" d="M232,85.3H94.1l72.6,122.1H232c4.1,0,7.5-3.4,7.5-7.5V92.8C239.5,88.7,236.1,85.3,232,85.3z"
				/>
		</g>
		<g id="XMLID_11_">
			<linearGradient id="XMLID_194_" gradientUnits="userSpaceOnUse" x1="75.2471" y1="111.8224" x2="75.2471" y2="163.9437">
				<stop  offset="0" style="stop-color:#FFCA3F"/>
				<stop  offset="9.693880e-002" style="stop-color:#CA7C22"/>
				<stop  offset="0.1888" style="stop-color:#FDDB7A"/>
				<stop  offset="0.4201" style="stop-color:#FFAD45"/>
				<stop  offset="0.5538" style="stop-color:#A95F0D"/>
				<stop  offset="0.6562" style="stop-color:#FFAD45"/>
				<stop  offset="0.7903" style="stop-color:#FFFF9B"/>
				<stop  offset="0.868" style="stop-color:#FFED7C"/>
				<stop  offset="1" style="stop-color:#FFCA3F"/>
			</linearGradient>
			<path id="XMLID_12_" class="st4" d="M88.3,134.3c0,2.1-1.7,3.7-3.7,3.7H65.9c-2.1,0-3.7-1.7-3.7-3.7v-13.2c0-2.1,1.7-3.7,3.7-3.7
				h18.6c2.1,0,3.7,1.7,3.7,3.7V134.3z"/>
			<linearGradient id="XMLID_195_" gradientUnits="userSpaceOnUse" x1="75.2471" y1="99.1893" x2="75.2471" y2="164.449">
				<stop  offset="0" style="stop-color:#FFCA3F"/>
				<stop  offset="9.693880e-002" style="stop-color:#CA7C22"/>
				<stop  offset="0.1888" style="stop-color:#FDDB7A"/>
				<stop  offset="0.4201" style="stop-color:#FFAD45"/>
				<stop  offset="0.5538" style="stop-color:#A95F0D"/>
				<stop  offset="0.6562" style="stop-color:#FFAD45"/>
				<stop  offset="0.7903" style="stop-color:#FFFF9B"/>
				<stop  offset="0.868" style="stop-color:#FFED7C"/>
				<stop  offset="1" style="stop-color:#FFCA3F"/>
			</linearGradient>
			<path id="XMLID_13_" class="st5" d="M88.3,123.9v-0.5h-4.8v-6H83v6h-3.9c-0.5-1.6-1.9-2.8-3.7-3v-3.1H75v3c-1.9,0-3.5,1.3-4,3
				h-3.5v-6H67v6h-4.8v0.5H67v6.8h-4.8v0.5H67v6.9h0.5v-6.9h3.4c0.4,1.9,2.1,3.3,4.1,3.3v3.6h0.5v-3.6c1.9-0.2,3.4-1.5,3.8-3.3H83
				v6.9h0.5v-6.9h4.8v-0.5h-2.8v-6.8H88.3z M70.8,130.7h-3.3v-6.8h3.4c0,0.3-0.1,0.5-0.1,0.8c0,1,0.4,2,1,2.7c-0.7,0.8-1,1.7-1,2.7
				C70.8,130.3,70.8,130.5,70.8,130.7z M75.1,134c-2.1,0-3.8-1.7-3.8-3.8c0-1,0.4-1.9,1-2.6l0.1-0.2l-0.1-0.2c-0.7-0.7-1-1.6-1-2.6
				c0-2.1,1.7-3.8,3.8-3.8c2.1,0,3.8,1.7,3.8,3.8c0,1-0.4,1.9-1,2.6l-0.2,0.2l0.2,0.2c0.7,0.7,1,1.6,1,2.6
				C78.9,132.3,77.2,134,75.1,134z M85,130.7h-5.6c0-0.2,0-0.3,0-0.5c0-1-0.4-2-1-2.7c0.7-0.8,1-1.7,1-2.7c0-0.3,0-0.5-0.1-0.8H85
				V130.7z"/>
		</g>
		<g id="XMLID_18_">
			<path id="XMLID_19_" class="st6" d="M63.3,152.4l-0.6-0.6l1.8-2H66v9.1h-1v-8c0-0.2,0-0.3,0-0.3l0,0L63.3,152.4z"/>
			<path id="XMLID_21_" class="st6" d="M68,158.8v-1.4c0-0.2,0-0.3,0-0.3c0,0,0.1-0.1,0.2-0.2l4.3-3.9c0.1-0.1,0.2-0.2,0.2-0.3
				c0-0.1,0-0.2,0-0.4v-1.2c0-0.1,0-0.2,0-0.3c0,0-0.1-0.1-0.1-0.1c-0.1-0.1-0.1-0.1-0.2-0.1c0,0-0.1,0-0.3,0h-2.3
				c-0.2,0-0.3,0-0.3,0c0,0-0.1,0-0.2,0.1c-0.1,0.1-0.1,0.1-0.1,0.1c0,0,0,0.1,0,0.3v0.2h-1.1v-0.5c0-0.3,0.1-0.5,0.3-0.7l0.3-0.3
				c0.2-0.2,0.4-0.3,0.6-0.3h3.3c0.2,0,0.4,0.1,0.6,0.3l0.3,0.3c0.2,0.2,0.3,0.4,0.3,0.7v1.8c0,0.2,0,0.3,0,0.4
				c0,0.1-0.1,0.2-0.2,0.3l-4.3,3.9c-0.1,0.1-0.2,0.2-0.2,0.3c0,0.1,0,0.2,0,0.3v0.1h4.8v0.9H68z"/>
			<path id="XMLID_23_" class="st6" d="M81.1,154.2l0.5,0.4c0.1,0.1,0.2,0.2,0.2,0.2c0,0.1,0,0.2,0,0.4v2.4c0,0.2,0,0.3,0,0.4
				c0,0.1-0.1,0.2-0.2,0.3l-0.2,0.2c-0.2,0.2-0.4,0.3-0.6,0.3h-3.7c-0.2,0-0.4-0.1-0.6-0.3l-0.3-0.3c-0.2-0.2-0.3-0.4-0.3-0.6v-0.5
				h1.1v0.2c0,0.1,0,0.2,0,0.3c0,0,0.1,0.1,0.1,0.1c0.1,0.1,0.1,0.1,0.2,0.1c0,0,0.1,0,0.3,0h2.6c0.2,0,0.3,0,0.3,0
				c0,0,0.1,0,0.2-0.1c0.1-0.1,0.1-0.1,0.1-0.1c0,0,0-0.1,0-0.3v-2c0-0.2-0.1-0.4-0.2-0.5l-0.2-0.2c-0.1-0.1-0.2-0.2-0.3-0.2
				c-0.1,0-0.2,0-0.3,0h-2.1v-0.8h1.9c0.2,0,0.3,0,0.3,0c0.1,0,0.1-0.1,0.3-0.2l0.2-0.2c0.1-0.1,0.2-0.2,0.2-0.2c0,0,0-0.2,0-0.3
				v-1.6c0-0.1,0-0.2,0-0.3c0,0-0.1-0.1-0.1-0.1c-0.1-0.1-0.1-0.1-0.2-0.1c0,0-0.1,0-0.3,0h-2.1c-0.2,0-0.3,0-0.3,0
				c0,0-0.1,0-0.2,0.1c-0.1,0.1-0.1,0.1-0.1,0.1c0,0,0,0.1,0,0.3v0.2h-1.1v-0.5c0-0.3,0.1-0.5,0.3-0.7l0.3-0.3
				c0.2-0.2,0.4-0.3,0.6-0.3h3.1c0.2,0,0.4,0.1,0.6,0.3l0.3,0.3c0.2,0.2,0.3,0.4,0.3,0.7v2.1c0,0.1,0,0.2,0,0.3c0,0-0.1,0.1-0.2,0.2
				l-0.4,0.3c-0.1,0.1-0.3,0.2-0.4,0.2v0.1C80.8,154.1,81,154.1,81.1,154.2z"/>
			<path id="XMLID_25_" class="st6" d="M88.3,153.2h1.1v2.6h1.2v0.9h-1.2v2.1h-1.1v-2.1h-4.6v-1.1l4.4-6h1.2l-4.3,5.8
				c-0.1,0.1-0.2,0.2-0.2,0.2v0.1h3.5V153.2z"/>
			<path id="XMLID_27_" class="st6" d="M104.4,152.9h2.9c0.2,0,0.4,0.1,0.6,0.3l0.3,0.3c0.2,0.2,0.3,0.4,0.3,0.6v3.6
				c0,0.3-0.1,0.5-0.3,0.6l-0.3,0.3c-0.2,0.2-0.4,0.3-0.6,0.3h-3.9c-0.2,0-0.4-0.1-0.6-0.3l-0.3-0.3c-0.2-0.2-0.3-0.4-0.3-0.6v-0.5
				h1.1v0.2c0,0.1,0,0.2,0,0.3c0,0,0.1,0.1,0.1,0.1c0.1,0.1,0.1,0.1,0.2,0.1c0,0,0.1,0,0.3,0h2.9c0.2,0,0.3,0,0.3,0
				c0,0,0.1,0,0.2-0.1c0.1-0.1,0.1-0.1,0.1-0.1c0,0,0-0.1,0-0.3v-3.1c0-0.1,0-0.2,0-0.3c0,0-0.1-0.1-0.1-0.1
				c-0.1-0.1-0.1-0.1-0.2-0.1c0,0-0.1,0-0.3,0h-2.5c-0.2,0-0.4,0.1-0.6,0.3c-0.2,0.2-0.3,0.3-0.3,0.5h-1.1v-4.8h6.1v0.9h-5v2.8h0.1
				c0-0.1,0.1-0.2,0.3-0.4C104,152.9,104.2,152.9,104.4,152.9z"/>
			<path id="XMLID_29_" class="st6" d="M117.4,151.4h-1.1v-0.2c0-0.1,0-0.2,0-0.3c0,0-0.1-0.1-0.1-0.1c-0.1-0.1-0.1-0.1-0.2-0.1
				c0,0-0.1,0-0.3,0h-3.1c-0.2,0-0.3,0-0.3,0c0,0-0.1,0-0.2,0.1c-0.1,0.1-0.1,0.1-0.1,0.1c0,0,0,0.1,0,0.3v2.6h0.1l0.1-0.1
				c0.3-0.3,0.5-0.5,0.7-0.5h3.5c0.2,0,0.4,0.1,0.6,0.3l0.3,0.3c0.2,0.2,0.3,0.4,0.3,0.7v3.3c0,0.3-0.1,0.5-0.3,0.6l-0.3,0.3
				c-0.2,0.2-0.4,0.3-0.6,0.3h-4.2c-0.2,0-0.4-0.1-0.6-0.3l-0.3-0.3c-0.2-0.2-0.3-0.4-0.3-0.6v-6.8c0-0.3,0.1-0.5,0.3-0.7l0.3-0.3
				c0.2-0.2,0.4-0.3,0.6-0.3h4.1c0.2,0,0.4,0.1,0.6,0.3l0.3,0.3c0.2,0.2,0.3,0.4,0.3,0.7V151.4z M116.4,157.4v-2.7
				c0-0.1,0-0.2,0-0.3c0,0-0.1-0.1-0.1-0.1c-0.1-0.1-0.1-0.1-0.2-0.1c0,0-0.1,0-0.3,0h-2.9c-0.2,0-0.3,0-0.3,0
				c-0.1,0-0.2,0.1-0.3,0.2c-0.2,0.1-0.3,0.2-0.3,0.3v2.7c0,0.1,0,0.2,0,0.3c0,0,0.1,0.1,0.1,0.1c0.1,0.1,0.1,0.1,0.2,0.1
				c0,0,0.1,0,0.3,0h3.3c0.2,0,0.3,0,0.3,0c0,0,0.1,0,0.2-0.1c0.1-0.1,0.1-0.1,0.1-0.1C116.4,157.6,116.4,157.5,116.4,157.4z"/>
			<path id="XMLID_32_" class="st6" d="M120.1,158.8l4.3-7.9c0.1-0.1,0.2-0.2,0.2-0.3h-5.6v-0.9h6.7v1l-4.3,8.1H120.1z"/>
			<path id="XMLID_34_" class="st6" d="M127.7,154.8l0.6-0.5c0.1-0.1,0.3-0.2,0.4-0.2v-0.1c-0.1,0-0.2-0.1-0.4-0.2l-0.4-0.3
				c-0.1-0.1-0.2-0.3-0.2-0.4v-2.2c0-0.3,0.1-0.5,0.3-0.7l0.3-0.3c0.2-0.2,0.4-0.3,0.6-0.3h4c0.2,0,0.4,0.1,0.6,0.3l0.3,0.3
				c0.2,0.2,0.3,0.4,0.3,0.7v2.2c0,0.2-0.1,0.3-0.2,0.4l-0.4,0.3c-0.1,0.1-0.3,0.2-0.4,0.2v0.1c0.1,0,0.2,0.1,0.4,0.2l0.6,0.5
				c0.1,0.1,0.2,0.3,0.2,0.5v2.3c0,0.3-0.1,0.5-0.3,0.6c-0.1,0.1-0.2,0.1-0.3,0.3c-0.2,0.2-0.4,0.3-0.6,0.3h-4.3
				c-0.2,0-0.4-0.1-0.6-0.3c-0.1-0.1-0.2-0.2-0.3-0.3c-0.2-0.2-0.3-0.4-0.3-0.6v-2.3C127.6,155.1,127.6,154.9,127.7,154.8z
				 M132.3,154.7h-2.6c-0.1,0-0.2,0-0.3,0c0,0-0.1,0.1-0.2,0.1l-0.3,0.2c-0.1,0.1-0.2,0.2-0.2,0.2c0,0,0,0.1,0,0.3v1.8
				c0,0.1,0,0.2,0,0.3c0,0,0.1,0.1,0.1,0.1c0.1,0.1,0.1,0.1,0.2,0.1c0,0,0.1,0,0.3,0h3.3c0.2,0,0.3,0,0.3,0c0,0,0.1,0,0.2-0.1
				c0.1-0.1,0.1-0.1,0.1-0.1c0,0,0-0.1,0-0.3v-1.8c0-0.1,0-0.2,0-0.3c0,0-0.1-0.1-0.2-0.2l-0.3-0.2c-0.1-0.1-0.2-0.1-0.2-0.1
				C132.5,154.7,132.4,154.7,132.3,154.7z M132.5,150.6h-3c-0.2,0-0.3,0-0.3,0c0,0-0.1,0-0.2,0.1c-0.1,0.1-0.1,0.1-0.1,0.1
				c0,0,0,0.1,0,0.3v1.7c0,0.1,0,0.2,0,0.3c0,0,0.1,0.1,0.2,0.2l0.3,0.3c0.1,0.1,0.2,0.1,0.2,0.1c0,0,0.2,0,0.3,0h2.2
				c0.2,0,0.3,0,0.3,0c0,0,0.1-0.1,0.2-0.1l0.3-0.3c0.1-0.1,0.2-0.2,0.2-0.2c0,0,0-0.1,0-0.3v-1.7c0-0.1,0-0.2,0-0.3
				c0,0-0.1-0.1-0.1-0.1c-0.1-0.1-0.1-0.1-0.2-0.1C132.7,150.7,132.6,150.6,132.5,150.6z"/>
			<path id="XMLID_38_" class="st6" d="M146.4,157.1h1.1v0.2c0,0.1,0,0.2,0,0.3c0,0,0.1,0.1,0.1,0.1c0.1,0.1,0.1,0.1,0.2,0.1
				c0,0,0.1,0,0.3,0h3.1c0.2,0,0.3,0,0.3,0c0,0,0.1,0,0.2-0.1c0.1-0.1,0.1-0.1,0.1-0.1c0,0,0-0.1,0-0.3v-2.6h-0.1l-0.1,0.1
				c-0.3,0.3-0.5,0.5-0.7,0.5h-3.5c-0.2,0-0.4-0.1-0.6-0.3l-0.3-0.3c-0.2-0.2-0.3-0.4-0.3-0.6v-3.3c0-0.3,0.1-0.5,0.3-0.7l0.3-0.3
				c0.2-0.2,0.4-0.3,0.6-0.3h4.2c0.2,0,0.4,0.1,0.6,0.3l0.3,0.3c0.2,0.2,0.3,0.4,0.3,0.7v6.8c0,0.3-0.1,0.5-0.3,0.6l-0.3,0.3
				c-0.2,0.2-0.4,0.3-0.6,0.3h-4.1c-0.2,0-0.4-0.1-0.6-0.3l-0.3-0.3c-0.2-0.2-0.3-0.4-0.3-0.6V157.1z M147.4,151.2v2.7
				c0,0.1,0,0.2,0,0.3s0.1,0.1,0.1,0.1c0.1,0.1,0.1,0.1,0.2,0.1c0,0,0.1,0,0.3,0h2.9c0.2,0,0.3,0,0.3,0c0.1,0,0.2-0.1,0.3-0.2
				c0.2-0.1,0.3-0.2,0.3-0.3v-2.7c0-0.1,0-0.2,0-0.3c0,0-0.1-0.1-0.1-0.1c-0.1-0.1-0.1-0.1-0.2-0.1c0,0-0.1,0-0.3,0H148
				c-0.2,0-0.3,0-0.3,0c0,0-0.1,0-0.2,0.1c-0.1,0.1-0.1,0.1-0.1,0.1C147.4,151,147.4,151,147.4,151.2z"/>
			<path id="XMLID_41_" class="st6" d="M156.6,149.7h5.1c0.2,0,0.4,0.1,0.6,0.3l0.3,0.3c0.2,0.2,0.3,0.4,0.3,0.7v6.8
				c0,0.3-0.1,0.5-0.3,0.6l-0.3,0.3c-0.2,0.2-0.4,0.3-0.6,0.3h-5.1c-0.2,0-0.4-0.1-0.6-0.3l-0.3-0.3c-0.2-0.2-0.3-0.4-0.3-0.6v-6.8
				c0-0.3,0.1-0.5,0.3-0.7l0.3-0.3C156.2,149.8,156.4,149.7,156.6,149.7z M161.9,157.4v-6.2c0-0.1,0-0.2,0-0.3c0,0-0.1-0.1-0.1-0.1
				c-0.1-0.1-0.1-0.1-0.2-0.1c0,0-0.1,0-0.3,0h-4.2c-0.2,0-0.3,0-0.3,0c0,0-0.1,0-0.2,0.1c-0.1,0.1-0.1,0.1-0.1,0.1c0,0,0,0.1,0,0.3
				v6.2c0,0.1,0,0.2,0,0.3c0,0,0.1,0.1,0.1,0.1c0.1,0.1,0.1,0.1,0.2,0.1c0,0,0.1,0,0.3,0h4.2c0.2,0,0.3,0,0.3,0c0,0,0.1,0,0.2-0.1
				c0.1-0.1,0.1-0.1,0.1-0.1C161.9,157.6,161.9,157.5,161.9,157.4z"/>
			<path id="XMLID_44_" class="st6" d="M165.5,152.4l-0.6-0.6l1.8-2h1.5v9.1h-1v-8c0-0.2,0-0.3,0-0.3l0,0L165.5,152.4z"/>
			<path id="XMLID_46_" class="st6" d="M170.2,158.8v-1.4c0-0.2,0-0.3,0-0.3c0,0,0.1-0.1,0.2-0.2l4.3-3.9c0.1-0.1,0.2-0.2,0.2-0.3
				c0-0.1,0-0.2,0-0.4v-1.2c0-0.1,0-0.2,0-0.3c0,0-0.1-0.1-0.1-0.1c-0.1-0.1-0.1-0.1-0.2-0.1c0,0-0.1,0-0.3,0h-2.3
				c-0.2,0-0.3,0-0.3,0c0,0-0.1,0-0.2,0.1c-0.1,0.1-0.1,0.1-0.1,0.1c0,0,0,0.1,0,0.3v0.2h-1.1v-0.5c0-0.3,0.1-0.5,0.3-0.7l0.3-0.3
				c0.2-0.2,0.4-0.3,0.6-0.3h3.3c0.2,0,0.4,0.1,0.6,0.3l0.3,0.3c0.2,0.2,0.3,0.4,0.3,0.7v1.8c0,0.2,0,0.3,0,0.4
				c0,0.1-0.1,0.2-0.2,0.3l-4.3,3.9c-0.1,0.1-0.2,0.2-0.2,0.3c0,0.1,0,0.2,0,0.3v0.1h4.8v0.9H170.2z"/>
			<path id="XMLID_48_" class="st6" d="M193.1,154.2l0.5,0.4c0.1,0.1,0.2,0.2,0.2,0.2c0,0.1,0,0.2,0,0.4v2.4c0,0.2,0,0.3,0,0.4
				c0,0.1-0.1,0.2-0.2,0.3l-0.2,0.2c-0.2,0.2-0.4,0.3-0.6,0.3h-3.7c-0.2,0-0.4-0.1-0.6-0.3l-0.3-0.3c-0.2-0.2-0.3-0.4-0.3-0.6v-0.5
				h1.1v0.2c0,0.1,0,0.2,0,0.3c0,0,0.1,0.1,0.1,0.1c0.1,0.1,0.1,0.1,0.2,0.1c0,0,0.1,0,0.3,0h2.6c0.2,0,0.3,0,0.3,0
				c0,0,0.1,0,0.2-0.1c0.1-0.1,0.1-0.1,0.1-0.1c0,0,0-0.1,0-0.3v-2c0-0.2-0.1-0.4-0.2-0.5l-0.2-0.2c-0.1-0.1-0.2-0.2-0.3-0.2
				c-0.1,0-0.2,0-0.3,0h-2.1v-0.8h1.9c0.2,0,0.3,0,0.3,0c0.1,0,0.1-0.1,0.3-0.2l0.2-0.2c0.1-0.1,0.2-0.2,0.2-0.2c0,0,0-0.2,0-0.3
				v-1.6c0-0.1,0-0.2,0-0.3c0,0-0.1-0.1-0.1-0.1c-0.1-0.1-0.1-0.1-0.2-0.1c0,0-0.1,0-0.3,0h-2.1c-0.2,0-0.3,0-0.3,0
				c0,0-0.1,0-0.2,0.1c-0.1,0.1-0.1,0.1-0.1,0.1c0,0,0,0.1,0,0.3v0.2h-1.1v-0.5c0-0.3,0.1-0.5,0.3-0.7l0.3-0.3
				c0.2-0.2,0.4-0.3,0.6-0.3h3.1c0.2,0,0.4,0.1,0.6,0.3l0.3,0.3c0.2,0.2,0.3,0.4,0.3,0.7v2.1c0,0.1,0,0.2,0,0.3s-0.1,0.1-0.2,0.2
				l-0.4,0.3c-0.1,0.1-0.3,0.2-0.4,0.2v0.1C192.8,154.1,192.9,154.1,193.1,154.2z"/>
			<path id="XMLID_50_" class="st6" d="M200.3,153.2h1.1v2.6h1.2v0.9h-1.2v2.1h-1.1v-2.1h-4.6v-1.1l4.4-6h1.2l-4.3,5.8
				c-0.1,0.1-0.2,0.2-0.2,0.2v0.1h3.5V153.2z"/>
			<path id="XMLID_52_" class="st6" d="M206.6,152.9h2.9c0.2,0,0.4,0.1,0.6,0.3l0.3,0.3c0.2,0.2,0.3,0.4,0.3,0.6v3.6
				c0,0.3-0.1,0.5-0.3,0.6l-0.3,0.3c-0.2,0.2-0.4,0.3-0.6,0.3h-3.9c-0.2,0-0.4-0.1-0.6-0.3l-0.3-0.3c-0.2-0.2-0.3-0.4-0.3-0.6v-0.5
				h1.1v0.2c0,0.1,0,0.2,0,0.3c0,0,0.1,0.1,0.1,0.1c0.1,0.1,0.1,0.1,0.2,0.1c0,0,0.1,0,0.3,0h2.9c0.2,0,0.3,0,0.3,0
				c0,0,0.1,0,0.2-0.1c0.1-0.1,0.1-0.1,0.1-0.1c0,0,0-0.1,0-0.3v-3.1c0-0.1,0-0.2,0-0.3c0,0-0.1-0.1-0.1-0.1
				c-0.1-0.1-0.1-0.1-0.2-0.1c0,0-0.1,0-0.3,0h-2.5c-0.2,0-0.4,0.1-0.6,0.3c-0.2,0.2-0.3,0.3-0.3,0.5h-1.1v-4.8h6.1v0.9h-5v2.8h0.1
				c0-0.1,0.1-0.2,0.3-0.4C206.2,152.9,206.5,152.9,206.6,152.9z"/>
			<path id="XMLID_54_" class="st6" d="M219.6,151.4h-1.1v-0.2c0-0.1,0-0.2,0-0.3c0,0-0.1-0.1-0.1-0.1c-0.1-0.1-0.1-0.1-0.2-0.1
				c0,0-0.1,0-0.3,0h-3.1c-0.2,0-0.3,0-0.3,0c0,0-0.1,0-0.2,0.1c-0.1,0.1-0.1,0.1-0.1,0.1c0,0,0,0.1,0,0.3v2.6h0.1l0.1-0.1
				c0.3-0.3,0.5-0.5,0.7-0.5h3.5c0.2,0,0.4,0.1,0.6,0.3l0.3,0.3c0.2,0.2,0.3,0.4,0.3,0.7v3.3c0,0.3-0.1,0.5-0.3,0.6l-0.3,0.3
				c-0.2,0.2-0.4,0.3-0.6,0.3h-4.2c-0.2,0-0.4-0.1-0.6-0.3l-0.3-0.3c-0.2-0.2-0.3-0.4-0.3-0.6v-6.8c0-0.3,0.1-0.5,0.3-0.7l0.3-0.3
				c0.2-0.2,0.4-0.3,0.6-0.3h4.1c0.2,0,0.4,0.1,0.6,0.3l0.3,0.3c0.2,0.2,0.3,0.4,0.3,0.7V151.4z M218.6,157.4v-2.7
				c0-0.1,0-0.2,0-0.3c0,0-0.1-0.1-0.1-0.1s-0.1-0.1-0.2-0.1c0,0-0.1,0-0.3,0h-2.9c-0.2,0-0.3,0-0.3,0c-0.1,0-0.2,0.1-0.3,0.2
				c-0.2,0.1-0.3,0.2-0.3,0.3v2.7c0,0.1,0,0.2,0,0.3c0,0,0.1,0.1,0.1,0.1c0.1,0.1,0.1,0.1,0.2,0.1c0,0,0.1,0,0.3,0h3.3
				c0.2,0,0.3,0,0.3,0c0,0,0.1,0,0.2-0.1c0.1-0.1,0.1-0.1,0.1-0.1C218.6,157.6,218.6,157.5,218.6,157.4z"/>
		</g>
		<g id="XMLID_57_">
			<path id="XMLID_58_" class="st6" d="M68,187.2L68,187.2c0-0.2,0-0.4,0-0.5V181h0.9v7.6H68l-4-6.1l0,0c0.1,0.2,0.1,0.3,0.1,0.5
				v5.6h-0.9V181H64L68,187.2z"/>
			<path id="XMLID_60_" class="st6" d="M74.4,188.2L74.4,188.2c0,0.1-0.1,0.2-0.3,0.3c-0.1,0.1-0.2,0.1-0.3,0.1c0,0-0.1,0-0.3,0
				h-1.9c-0.2,0-0.3-0.1-0.5-0.2l-0.3-0.2c-0.2-0.1-0.3-0.3-0.3-0.5v-1.3c0-0.2,0.1-0.4,0.3-0.5l0.3-0.2c0.2-0.1,0.3-0.2,0.5-0.2
				h1.9c0.1,0,0.2,0,0.3,0c0,0,0.1,0,0.1,0.1c0.1,0.1,0.1,0.1,0.1,0.2h0v-1.3c0-0.1,0-0.2,0-0.2c0,0,0-0.1-0.1-0.1
				c-0.1,0-0.1-0.1-0.2-0.1c0,0-0.1,0-0.3,0H72c-0.1,0-0.2,0-0.3,0c0,0-0.1,0.1-0.3,0.2l-0.7-0.5l0.3-0.2c0.1-0.1,0.2-0.2,0.3-0.2
				c0,0,0.1,0,0.3,0h2.5c0.2,0,0.3,0.1,0.5,0.2l0.3,0.2c0.2,0.1,0.3,0.3,0.3,0.5v3.2c0,0.1,0,0.2,0,0.2c0,0,0,0.1,0.1,0.1
				c0.1,0.1,0.1,0.1,0.1,0.1c0,0,0,0.1,0,0.2v0.5h-0.4c-0.1,0-0.2,0-0.3,0c0,0-0.1-0.1-0.2-0.1C74.5,188.3,74.4,188.3,74.4,188.2z
				 M71.6,186.5v0.8c0,0.1,0,0.2,0,0.2c0,0,0,0.1,0.1,0.1c0.1,0.1,0.1,0.1,0.2,0.1c0,0,0.1,0,0.3,0h1.3c0.1,0,0.2,0,0.3,0
				c0,0,0.1-0.1,0.3-0.1c0.1-0.1,0.2-0.1,0.2-0.2c0,0,0-0.1,0-0.2v-0.7c0-0.1,0-0.2,0-0.2c0,0,0-0.1-0.1-0.1
				c-0.1-0.1-0.1-0.1-0.2-0.1c0,0-0.1,0-0.3,0h-1.6c-0.1,0-0.2,0-0.3,0c0,0-0.1,0-0.2,0.1c-0.1,0.1-0.1,0.1-0.1,0.1
				C71.6,186.4,71.6,186.4,71.6,186.5z"/>
			<path id="XMLID_63_" class="st6" d="M80.9,183.7L80.9,183.7c0.1-0.1,0.1-0.1,0.3-0.2l0.2-0.1c0.1-0.1,0.2-0.1,0.3-0.1
				c0,0,0.1,0,0.3,0h1.7c0.2,0,0.3,0.1,0.5,0.2l0.3,0.2c0.2,0.1,0.3,0.3,0.3,0.5v4.4h-0.9v-4.2c0-0.1,0-0.2,0-0.2c0,0,0-0.1-0.1-0.1
				c-0.1,0-0.1-0.1-0.2-0.1c0,0-0.1,0-0.3,0H82c-0.1,0-0.2,0-0.3,0c0,0-0.1,0.1-0.3,0.1c-0.2,0.1-0.3,0.2-0.3,0.3v4.2h-0.9v-4.2
				c0-0.1,0-0.2,0-0.2c0,0,0-0.1-0.1-0.1c-0.1,0-0.1-0.1-0.2-0.1c0,0-0.1,0-0.2,0h-1.1c-0.1,0-0.2,0-0.3,0c0,0-0.1,0.1-0.3,0.1
				c-0.1,0.1-0.2,0.1-0.2,0.2c0,0,0,0.1,0,0.2v4.1H77v-4.2c0-0.1,0-0.2,0-0.2c0,0,0-0.1-0.1-0.1c-0.1,0-0.1-0.1-0.1-0.1
				c0,0,0-0.1,0-0.2v-0.5h0.4c0.1,0,0.2,0,0.3,0c0,0,0.1,0.1,0.2,0.1c0.1,0.1,0.2,0.2,0.2,0.3h0c0-0.1,0.1-0.2,0.2-0.3
				c0.1-0.1,0.2-0.1,0.3-0.1c0,0,0.1,0,0.3,0h1.6c0.2,0,0.3,0.1,0.5,0.2C80.9,183.5,80.9,183.6,80.9,183.7z"/>
			<path id="XMLID_65_" class="st6" d="M90,187.6l0.7,0.5l-0.3,0.2c-0.1,0.1-0.2,0.2-0.3,0.2c0,0-0.1,0-0.3,0H87
				c-0.2,0-0.3-0.1-0.5-0.2l-0.3-0.2c-0.2-0.1-0.3-0.3-0.3-0.5v-3.5c0-0.2,0.1-0.4,0.3-0.5l0.3-0.2c0.2-0.1,0.3-0.2,0.5-0.2h2.5
				c0.1,0,0.3,0.1,0.5,0.2l0.3,0.2c0.2,0.1,0.3,0.3,0.3,0.5v2.2h-3.7v1c0,0.1,0,0.2,0,0.2c0,0,0,0.1,0.1,0.1
				c0.1,0.1,0.1,0.1,0.2,0.1c0,0,0.1,0,0.3,0h2.1c0.1,0,0.2,0,0.3,0C89.8,187.8,89.9,187.7,90,187.6z M89.7,185.7v-1.3
				c0-0.1,0-0.2,0-0.2c0,0,0-0.1-0.1-0.1c-0.1,0-0.1-0.1-0.2-0.1c0,0-0.1,0-0.2,0h-1.7c-0.1,0-0.2,0-0.3,0c0,0-0.1,0-0.2,0.1
				c-0.1,0.1-0.1,0.1-0.1,0.1c0,0,0,0.1,0,0.2v1.3H89.7z"/>
			<path id="XMLID_68_" class="st6" d="M98.5,185.1h-2.6c-0.2,0-0.3-0.1-0.5-0.2l-0.3-0.2c-0.2-0.1-0.2-0.3-0.2-0.4V182
				c0-0.2,0.1-0.4,0.3-0.5l0.3-0.2c0.2-0.1,0.3-0.2,0.5-0.2h2.9c0.2,0,0.3,0.1,0.5,0.2l0.3,0.2c0.2,0.1,0.3,0.3,0.3,0.5v0.4h-0.9
				v-0.2c0-0.1,0-0.2,0-0.2c0,0,0-0.1-0.1-0.1c-0.1,0-0.1-0.1-0.2-0.1c0,0-0.1,0-0.2,0h-2.1c-0.1,0-0.2,0-0.2,0c0,0-0.1,0-0.2,0.1
				c-0.1,0.1-0.1,0.1-0.1,0.1c0,0,0,0.1,0,0.2v1.7c0,0.1,0,0.2,0,0.2c0,0,0,0.1,0.1,0.1c0.1,0.1,0.1,0.1,0.2,0.1c0,0,0.1,0,0.2,0
				h2.6c0.2,0,0.3,0.1,0.5,0.2l0.3,0.2c0.2,0.1,0.3,0.3,0.3,0.5v2.3c0,0.2-0.1,0.4-0.3,0.5l-0.3,0.2c-0.2,0.1-0.3,0.2-0.5,0.2h-3.1
				c-0.2,0-0.3-0.1-0.5-0.2l-0.3-0.2c-0.2-0.1-0.3-0.3-0.3-0.5v-0.4h0.9v0.2c0,0.1,0,0.2,0,0.2c0,0,0,0.1,0.1,0.1
				c0.1,0.1,0.1,0.1,0.2,0.1c0,0,0.1,0,0.3,0h2.3c0.1,0,0.2,0,0.3,0c0,0,0.1,0,0.2-0.1c0.1-0.1,0.1-0.1,0.1-0.1c0,0,0-0.1,0-0.2
				v-1.8c0-0.1,0-0.2,0-0.2c0,0,0-0.1-0.1-0.1c-0.1-0.1-0.1-0.1-0.2-0.1C98.7,185.1,98.6,185.1,98.5,185.1z"/>
			<path id="XMLID_70_" class="st6" d="M104.1,188.6h-1.7c-0.2,0-0.3-0.1-0.5-0.2l-0.3-0.2c-0.2-0.1-0.3-0.3-0.3-0.5v-4.4h0.9v4.2
				c0,0.1,0,0.2,0,0.2c0,0,0,0.1,0.1,0.1c0.1,0.1,0.1,0.1,0.2,0.1c0,0,0.1,0,0.3,0h1.2c0.1,0,0.2,0,0.3,0c0,0,0.1-0.1,0.3-0.1
				c0.1-0.1,0.2-0.1,0.2-0.2c0,0,0-0.1,0-0.2v-4.1h0.9v4.2c0,0.1,0,0.2,0,0.2c0,0,0,0.1,0.1,0.1c0.1,0.1,0.1,0.1,0.1,0.1
				c0,0,0,0.1,0,0.2v0.5h-0.4c-0.1,0-0.2,0-0.3,0c0,0-0.1-0.1-0.2-0.1c-0.1-0.1-0.2-0.2-0.2-0.3h0c0,0.1-0.1,0.2-0.2,0.3
				c-0.1,0.1-0.2,0.1-0.3,0.1C104.3,188.6,104.3,188.6,104.1,188.6z"/>
			<path id="XMLID_72_" class="st6" d="M107.3,183.2h0.4c0.1,0,0.2,0,0.3,0c0,0,0.1,0.1,0.2,0.1c0.1,0.1,0.2,0.2,0.2,0.3h0
				c0-0.1,0.1-0.2,0.2-0.3c0.1-0.1,0.2-0.1,0.3-0.1c0,0,0.1,0,0.3,0h1c0.2,0,0.3,0.1,0.5,0.2l0.3,0.2l-0.7,0.5l-0.1-0.1
				c-0.1,0-0.1-0.1-0.2-0.1c0,0-0.1,0-0.3,0h-0.5c-0.1,0-0.2,0-0.3,0c0,0-0.1,0.1-0.3,0.1c-0.1,0.1-0.2,0.1-0.2,0.2c0,0,0,0.1,0,0.2
				v4.1h-0.9v-4.2c0-0.1,0-0.2,0-0.2c0,0,0-0.1-0.1-0.1c-0.1,0-0.1-0.1-0.1-0.1c0,0,0-0.1,0-0.2V183.2z"/>
			<path id="XMLID_74_" class="st6" d="M111.8,183.2h0.4c0.1,0,0.2,0,0.3,0c0,0,0.1,0.1,0.2,0.1c0.1,0.1,0.2,0.2,0.2,0.3h0
				c0-0.1,0.1-0.2,0.2-0.3c0.1-0.1,0.2-0.1,0.3-0.1c0,0,0.1,0,0.3,0h1.9c0.2,0,0.3,0.1,0.5,0.2l0.3,0.2c0.2,0.1,0.3,0.3,0.3,0.5v4.4
				h-0.9v-4.2c0-0.1,0-0.2,0-0.2c0,0,0-0.1-0.1-0.1c-0.1,0-0.1-0.1-0.2-0.1c0,0-0.1,0-0.3,0h-1.4c-0.1,0-0.2,0-0.3,0
				c0,0-0.1,0.1-0.3,0.1c-0.1,0.1-0.2,0.1-0.2,0.2c0,0,0,0.1,0,0.2v4.1H112v-4.2c0-0.1,0-0.2,0-0.2c0,0,0-0.1-0.1-0.1
				c-0.1,0-0.1-0.1-0.1-0.1c0,0,0-0.1,0-0.2V183.2z"/>
			<path id="XMLID_76_" class="st6" d="M121.7,188.2L121.7,188.2c0,0.1-0.1,0.2-0.3,0.3c-0.1,0.1-0.2,0.1-0.3,0.1c0,0-0.1,0-0.3,0
				H119c-0.2,0-0.3-0.1-0.5-0.2l-0.3-0.2c-0.2-0.1-0.3-0.3-0.3-0.5v-1.3c0-0.2,0.1-0.4,0.3-0.5l0.3-0.2c0.2-0.1,0.3-0.2,0.5-0.2h1.9
				c0.1,0,0.2,0,0.3,0c0,0,0.1,0,0.1,0.1c0.1,0.1,0.1,0.1,0.1,0.2h0v-1.3c0-0.1,0-0.2,0-0.2c0,0,0-0.1-0.1-0.1
				c-0.1,0-0.1-0.1-0.2-0.1c0,0-0.1,0-0.2,0h-1.8c-0.1,0-0.2,0-0.3,0c0,0-0.1,0.1-0.3,0.2l-0.7-0.5l0.3-0.2c0.1-0.1,0.2-0.2,0.3-0.2
				c0,0,0.1,0,0.3,0h2.5c0.2,0,0.3,0.1,0.5,0.2l0.3,0.2c0.2,0.1,0.3,0.3,0.3,0.5v3.2c0,0.1,0,0.2,0,0.2c0,0,0,0.1,0.1,0.1
				c0.1,0.1,0.1,0.1,0.1,0.1c0,0,0,0.1,0,0.2v0.5h-0.4c-0.1,0-0.2,0-0.3,0c0,0-0.1-0.1-0.2-0.1C121.8,188.3,121.7,188.3,121.7,188.2
				z M118.9,186.5v0.8c0,0.1,0,0.2,0,0.2c0,0,0,0.1,0.1,0.1c0.1,0.1,0.1,0.1,0.2,0.1c0,0,0.1,0,0.3,0h1.3c0.1,0,0.2,0,0.3,0
				c0,0,0.1-0.1,0.3-0.1c0.1-0.1,0.2-0.1,0.2-0.2c0,0,0-0.1,0-0.2v-0.7c0-0.1,0-0.2,0-0.2c0,0,0-0.1-0.1-0.1
				c-0.1-0.1-0.1-0.1-0.2-0.1c0,0-0.1,0-0.2,0h-1.6c-0.1,0-0.2,0-0.3,0c0,0-0.1,0-0.2,0.1c-0.1,0.1-0.1,0.1-0.1,0.1
				C118.9,186.4,118.9,186.4,118.9,186.5z"/>
			<path id="XMLID_79_" class="st6" d="M128.2,183.7L128.2,183.7c0.1-0.1,0.1-0.1,0.3-0.2l0.2-0.1c0.1-0.1,0.2-0.1,0.3-0.1
				c0,0,0.1,0,0.3,0h1.7c0.2,0,0.3,0.1,0.5,0.2l0.3,0.2c0.2,0.1,0.3,0.3,0.3,0.5v4.4H131v-4.2c0-0.1,0-0.2,0-0.2c0,0,0-0.1-0.1-0.1
				c-0.1,0-0.1-0.1-0.2-0.1c0,0-0.1,0-0.3,0h-1.2c-0.1,0-0.2,0-0.3,0c0,0-0.1,0.1-0.3,0.1c-0.2,0.1-0.3,0.2-0.3,0.3v4.2h-0.9v-4.2
				c0-0.1,0-0.2,0-0.2c0,0,0-0.1-0.1-0.1c-0.1,0-0.1-0.1-0.2-0.1c0,0-0.1,0-0.2,0H126c-0.1,0-0.2,0-0.3,0c0,0-0.1,0.1-0.3,0.1
				c-0.1,0.1-0.2,0.1-0.2,0.2c0,0,0,0.1,0,0.2v4.1h-0.9v-4.2c0-0.1,0-0.2,0-0.2c0,0,0-0.1-0.1-0.1c-0.1,0-0.1-0.1-0.1-0.1
				c0,0,0-0.1,0-0.2v-0.5h0.4c0.1,0,0.2,0,0.3,0c0,0,0.1,0.1,0.2,0.1c0.1,0.1,0.2,0.2,0.2,0.3h0c0-0.1,0.1-0.2,0.2-0.3
				c0.1-0.1,0.2-0.1,0.3-0.1c0,0,0.1,0,0.3,0h1.6c0.2,0,0.3,0.1,0.5,0.2C128.1,183.5,128.2,183.6,128.2,183.7z"/>
			<path id="XMLID_81_" class="st6" d="M137.3,187.6l0.7,0.5l-0.3,0.2c-0.1,0.1-0.2,0.2-0.3,0.2c0,0-0.1,0-0.3,0h-2.9
				c-0.2,0-0.3-0.1-0.5-0.2l-0.3-0.2c-0.2-0.1-0.3-0.3-0.3-0.5v-3.5c0-0.2,0.1-0.4,0.3-0.5l0.3-0.2c0.2-0.1,0.3-0.2,0.5-0.2h2.5
				c0.1,0,0.3,0.1,0.5,0.2l0.3,0.2c0.2,0.1,0.3,0.3,0.3,0.5v2.2h-3.7v1c0,0.1,0,0.2,0,0.2c0,0,0,0.1,0.1,0.1
				c0.1,0.1,0.1,0.1,0.2,0.1c0,0,0.1,0,0.3,0h2.1c0.1,0,0.2,0,0.3,0C137.1,187.8,137.2,187.7,137.3,187.6z M136.9,185.7v-1.3
				c0-0.1,0-0.2,0-0.2c0,0,0-0.1-0.1-0.1c-0.1,0-0.1-0.1-0.2-0.1c0,0-0.1,0-0.3,0h-1.7c-0.1,0-0.2,0-0.3,0c0,0-0.1,0-0.2,0.1
				c-0.1,0.1-0.1,0.1-0.1,0.1c0,0,0,0.1,0,0.2v1.3H136.9z"/>
		</g>
		<g id="XMLID_84_">
			<path id="XMLID_85_" class="st6" d="M178.8,98.6h1.3c0.7,0,1.2,0.2,1.5,0.5c0.3,0.3,0.5,0.9,0.5,1.6c0,1-0.4,1.7-1.2,1.9
				c0.8,0.2,1.3,0.8,1.3,2c0,0.6-0.2,1.1-0.5,1.5c-0.3,0.3-0.7,0.5-1.3,0.5h-1.6V98.6z M179.8,99.4v2.8c0.4,0,0.7-0.1,0.9-0.3
				c0.2-0.2,0.3-0.6,0.3-1c0-0.5-0.1-0.9-0.2-1.1C180.6,99.5,180.3,99.4,179.8,99.4z M179.8,103v2.8c0.4,0,0.7-0.1,0.9-0.3
				c0.2-0.2,0.3-0.5,0.3-1c0-0.6-0.1-0.9-0.3-1.1C180.6,103.1,180.3,103,179.8,103z"/>
			<path id="XMLID_89_" class="st6" d="M186.7,106.6h-1v-0.7h0c-0.3,0.5-0.6,0.7-1,0.7c-0.4,0-0.7-0.2-0.9-0.5
				c-0.3-0.3-0.4-1.1-0.4-2.2c0-1,0.1-1.8,0.3-2.2c0.2-0.5,0.6-0.7,1.1-0.7c0.2,0,0.4,0.1,0.6,0.2c0.1,0.1,0.3,0.3,0.4,0.5h0v-0.6h1
				V106.6z M185,105.7c0.3,0,0.4-0.2,0.5-0.5c0.1-0.3,0.1-0.8,0.1-1.6c0-0.7,0-1.1-0.1-1.4c-0.1-0.3-0.2-0.4-0.5-0.4
				c-0.3,0-0.4,0.1-0.5,0.4c-0.1,0.3-0.1,0.7-0.1,1.4c0,0.8,0,1.3,0.1,1.6C184.6,105.6,184.7,105.7,185,105.7z"/>
			<path id="XMLID_92_" class="st6" d="M189.1,101.1v0.5h0c0.3-0.4,0.6-0.6,1.1-0.6c0.8,0,1.2,0.4,1.2,1.3v4.3h-1v-4
				c0-0.5-0.2-0.8-0.6-0.8c-0.2,0-0.4,0.1-0.5,0.2c-0.1,0.1-0.2,0.3-0.2,0.6v4h-1v-5.5H189.1z"/>
			<path id="XMLID_94_" class="st6" d="M196.4,106.6h-1.1l-1.5-2.9h0v2.9h-1v-8.3h1v5.1h0l1.3-2.3h1.1l-1.4,2.5L196.4,106.6z"/>
			<path id="XMLID_96_" class="st6" d="M203.7,106.6h-0.8l-2-5.5l0,0v5.5h-1v-8h0.9l2,5.5l0,0v-5.5h0.9V106.6z"/>
			<path id="XMLID_98_" class="st6" d="M208.5,106.6h-1v-0.7h0c-0.3,0.5-0.6,0.7-1,0.7c-0.4,0-0.7-0.2-0.9-0.5
				c-0.3-0.3-0.4-1.1-0.4-2.2c0-1,0.1-1.8,0.3-2.2c0.2-0.5,0.6-0.7,1.1-0.7c0.2,0,0.4,0.1,0.6,0.2c0.1,0.1,0.3,0.3,0.4,0.5h0v-0.6h1
				V106.6z M206.8,105.7c0.3,0,0.4-0.2,0.5-0.5c0.1-0.3,0.1-0.8,0.1-1.6c0-0.7,0-1.1-0.1-1.4c-0.1-0.3-0.2-0.4-0.5-0.4
				c-0.3,0-0.4,0.1-0.5,0.4c-0.1,0.3-0.1,0.7-0.1,1.4c0,0.8,0,1.3,0.1,1.6C206.3,105.6,206.5,105.7,206.8,105.7z"/>
			<path id="XMLID_101_" class="st6" d="M215.5,106.6h-1v-4c0-0.5-0.2-0.8-0.6-0.8c-0.4,0-0.7,0.3-0.7,1v3.8h-1v-4.1
				c0-0.2-0.1-0.4-0.2-0.5c-0.1-0.1-0.3-0.2-0.4-0.2c-0.5,0-0.7,0.3-0.7,0.9v3.9h-1v-5.5h1v0.5c0.3-0.4,0.7-0.6,1.1-0.6
				c0.5,0,0.8,0.2,1.1,0.7c0.3-0.4,0.8-0.7,1.2-0.7c0.8,0,1.2,0.4,1.2,1.3V106.6z"/>
			<path id="XMLID_103_" class="st6" d="M220.3,104H218c0,0.6,0,1,0.1,1.3c0.1,0.3,0.3,0.5,0.6,0.5c0.2,0,0.4-0.1,0.5-0.3
				c0.1-0.2,0.1-0.5,0.1-0.8h0.9c0,1.3-0.6,1.9-1.6,1.9c-1.1,0-1.7-0.9-1.7-2.7c0-2,0.6-2.9,1.8-2.9c0.4,0,0.8,0.2,1.2,0.5
				c0.3,0.3,0.5,1,0.5,2.1V104z M219.2,103.2c0-0.5,0-0.9-0.1-1.2c-0.1-0.2-0.2-0.4-0.5-0.4c-0.3,0-0.5,0.1-0.5,0.4
				c-0.1,0.2-0.1,0.6-0.1,1.2H219.2z"/>
		</g>
		<g id="XMLID_106_">
			<path id="XMLID_107_" class="st6" d="M66.1,106.8c-0.4,0.2-0.7,0.3-1.1,0.3c-0.7,0-1.3-0.3-1.9-0.8c-0.5-0.6-0.8-1.7-0.8-3.5
				c0-1.9,0.3-3.2,0.8-3.9c0.5-0.7,1.2-1,1.9-1c0.3,0,0.6,0,1,0.1v1.1C65.8,99,65.5,99,65.3,99c-0.5,0-0.9,0.2-1.2,0.7
				c-0.3,0.5-0.5,1.4-0.5,2.8c0,0.8,0,1.5,0.1,2c0.1,0.5,0.2,0.8,0.5,1.1c0.3,0.3,0.6,0.4,1,0.4c0.2,0,0.5-0.1,0.9-0.2V106.8z"/>
			<path id="XMLID_109_" class="st6" d="M70.1,101.8c-0.5,0-0.9,0.1-1.1,0.3c-0.2,0.2-0.3,0.6-0.3,1.2v3.7h-1.2v-6.1h1.2v0.9h0
				c0.3-0.7,0.8-1,1.4-1l0.1,0V101.8z"/>
			<path id="XMLID_111_" class="st6" d="M74.8,104.1h-2.6c0,0.7,0,1.2,0.1,1.5c0.1,0.3,0.3,0.5,0.7,0.5c0.3,0,0.4-0.1,0.5-0.3
				c0.1-0.2,0.1-0.5,0.1-0.9h1c0,1.4-0.6,2.2-1.8,2.2c-1.3,0-1.9-1-1.9-3c0-2.2,0.7-3.3,2-3.3c0.5,0,0.9,0.2,1.3,0.6
				c0.4,0.4,0.5,1.2,0.5,2.4V104.1z M73.6,103.2c0-0.6,0-1-0.1-1.3c-0.1-0.3-0.3-0.4-0.5-0.4c-0.3,0-0.5,0.1-0.6,0.4
				c-0.1,0.3-0.1,0.7-0.1,1.3H73.6z"/>
			<path id="XMLID_114_" class="st6" d="M78.9,97.7H80v9.3h-1.1v-0.8h0c-0.3,0.6-0.7,0.9-1.2,0.9c-0.3,0-0.6-0.1-0.8-0.3
				c-0.3-0.2-0.4-0.5-0.5-0.8c-0.1-0.4-0.1-1-0.1-1.8c0-1,0-1.6,0.1-2.1c0.1-0.4,0.2-0.7,0.5-1c0.2-0.2,0.5-0.3,0.9-0.3
				c0.5,0,0.9,0.3,1.1,0.8h0V97.7z M78.9,103.8c0-0.8,0-1.3-0.1-1.6c-0.1-0.3-0.3-0.5-0.6-0.5c-0.3,0-0.5,0.2-0.6,0.5
				c-0.1,0.3-0.2,0.9-0.2,1.6c0,0.8,0.1,1.4,0.2,1.7c0.1,0.3,0.3,0.5,0.6,0.5c0.3,0,0.5-0.2,0.6-0.5
				C78.8,105.2,78.9,104.6,78.9,103.8z"/>
			<path id="XMLID_117_" class="st6" d="M81.5,99c0-0.2,0.1-0.3,0.2-0.4c0.1-0.1,0.3-0.2,0.4-0.2c0.2,0,0.3,0.1,0.4,0.2
				c0.1,0.1,0.2,0.3,0.2,0.4c0,0.2-0.1,0.3-0.2,0.4c-0.1,0.1-0.3,0.2-0.4,0.2c-0.2,0-0.3-0.1-0.4-0.2C81.6,99.3,81.5,99.2,81.5,99z
				 M81.6,100.9h1.1v6.1h-1.1V100.9z"/>
			<path id="XMLID_120_" class="st6" d="M86.4,101.8h-0.7v5.2h-1.2v-5.2h-0.7v-0.9h0.7v-1.7h1.2v1.7h0.7V101.8z"/>
			<path id="XMLID_122_" class="st6" d="M94,106.8c-0.4,0.2-0.7,0.3-1.1,0.3c-0.7,0-1.3-0.3-1.9-0.8c-0.5-0.6-0.8-1.7-0.8-3.5
				c0-1.9,0.3-3.2,0.8-3.9c0.5-0.7,1.2-1,1.9-1c0.3,0,0.6,0,1,0.1v1.1C93.7,99,93.4,99,93.2,99c-0.5,0-0.9,0.2-1.2,0.7
				c-0.3,0.5-0.5,1.4-0.5,2.8c0,0.8,0,1.5,0.1,2c0.1,0.5,0.2,0.8,0.5,1.1c0.3,0.3,0.6,0.4,1,0.4c0.2,0,0.5-0.1,0.9-0.2V106.8z"/>
			<path id="XMLID_124_" class="st6" d="M99.1,107H98v-0.7h0c-0.3,0.6-0.7,0.8-1.1,0.8c-0.4,0-0.7-0.2-1.1-0.6
				c-0.3-0.4-0.5-1.2-0.5-2.5c0-1.2,0.1-2,0.3-2.5c0.2-0.5,0.6-0.8,1.2-0.8c0.3,0,0.5,0.1,0.6,0.2c0.2,0.1,0.3,0.3,0.5,0.6h0v-0.7
				h1.2V107z M97.2,106.1c0.3,0,0.5-0.2,0.6-0.5c0.1-0.4,0.1-0.9,0.1-1.8c0-0.7,0-1.3-0.1-1.6c-0.1-0.3-0.3-0.5-0.6-0.5
				c-0.3,0-0.5,0.1-0.6,0.4c-0.1,0.3-0.2,0.8-0.2,1.5c0,0.9,0,1.5,0.1,1.8C96.7,105.9,96.9,106.1,97.2,106.1z"/>
			<path id="XMLID_127_" class="st6" d="M103.2,101.8c-0.5,0-0.9,0.1-1.1,0.3c-0.2,0.2-0.3,0.6-0.3,1.2v3.7h-1.2v-6.1h1.2v0.9h0
				c0.3-0.7,0.8-1,1.4-1l0.1,0V101.8z"/>
			<path id="XMLID_129_" class="st6" d="M106.8,97.7h1.1v9.3h-1.1v-0.8h0c-0.3,0.6-0.7,0.9-1.2,0.9c-0.3,0-0.6-0.1-0.8-0.3
				c-0.3-0.2-0.4-0.5-0.5-0.8c-0.1-0.4-0.1-1-0.1-1.8c0-1,0-1.6,0.1-2.1c0.1-0.4,0.2-0.7,0.5-1c0.2-0.2,0.5-0.3,0.9-0.3
				c0.5,0,0.9,0.3,1.1,0.8h0V97.7z M106.8,103.8c0-0.8,0-1.3-0.1-1.6c-0.1-0.3-0.3-0.5-0.6-0.5c-0.3,0-0.5,0.2-0.6,0.5
				c-0.1,0.3-0.2,0.9-0.2,1.6c0,0.8,0.1,1.4,0.2,1.7c0.1,0.3,0.3,0.5,0.6,0.5c0.3,0,0.5-0.2,0.6-0.5
				C106.7,105.2,106.8,104.6,106.8,103.8z"/>
		</g>
		<g id="XMLID_132_">
			<path id="XMLID_133_" class="st6" d="M66.6,166.1c0,0.9-0.1,1.6-0.4,2c-0.3,0.4-0.7,0.7-1.3,0.7c-0.6,0-1-0.2-1.3-0.7
				c-0.3-0.5-0.4-1.1-0.4-2c0-0.9,0.1-1.6,0.4-2c0.3-0.4,0.7-0.7,1.3-0.7c0.6,0,1,0.2,1.3,0.7C66.5,164.6,66.6,165.3,66.6,166.1z
				 M63.9,166.1c0,0.7,0.1,1.2,0.2,1.5c0.1,0.3,0.4,0.5,0.7,0.5c0.3,0,0.6-0.2,0.7-0.5c0.1-0.3,0.2-0.8,0.2-1.5
				c0-0.7-0.1-1.2-0.2-1.5c-0.1-0.3-0.4-0.5-0.7-0.5c-0.3,0-0.6,0.2-0.7,0.5C64,164.9,63.9,165.4,63.9,166.1z"/>
			<path id="XMLID_136_" class="st6" d="M69.7,168.7h-0.8v-3.4c0-0.4,0-0.7,0-1c-0.1,0.1-0.1,0.1-0.2,0.2c-0.1,0.1-0.3,0.3-0.8,0.7
				l-0.4-0.5l1.5-1.2h0.7V168.7z"/>
			<path id="XMLID_138_" class="st6" d="M74.9,168.7h-3.5v-0.6l1.3-1.3c0.4-0.4,0.7-0.7,0.8-0.9c0.1-0.2,0.2-0.3,0.3-0.5
				c0.1-0.1,0.1-0.3,0.1-0.5c0-0.2-0.1-0.4-0.2-0.6c-0.1-0.1-0.3-0.2-0.6-0.2c-0.2,0-0.4,0-0.6,0.1c-0.2,0.1-0.4,0.2-0.6,0.4
				l-0.5-0.6c0.3-0.2,0.6-0.4,0.8-0.5c0.3-0.1,0.6-0.2,0.9-0.2c0.5,0,0.9,0.1,1.2,0.4c0.3,0.3,0.4,0.6,0.4,1c0,0.2,0,0.5-0.1,0.7
				c-0.1,0.2-0.2,0.4-0.4,0.7c-0.2,0.2-0.5,0.5-0.9,0.9l-0.9,0.9v0h2.5V168.7z"/>
			<path id="XMLID_140_" class="st6" d="M78.9,164.7c0,0.3-0.1,0.6-0.3,0.8c-0.2,0.2-0.5,0.4-0.8,0.4v0c0.4,0.1,0.7,0.2,0.9,0.4
				c0.2,0.2,0.3,0.5,0.3,0.8c0,0.5-0.2,0.9-0.5,1.2c-0.4,0.3-0.9,0.4-1.5,0.4c-0.6,0-1.1-0.1-1.5-0.3v-0.7c0.2,0.1,0.5,0.2,0.7,0.3
				c0.2,0.1,0.5,0.1,0.7,0.1c0.4,0,0.7-0.1,0.9-0.2c0.2-0.1,0.3-0.4,0.3-0.7c0-0.3-0.1-0.5-0.3-0.6c-0.2-0.1-0.6-0.2-1-0.2h-0.5
				v-0.7h0.5c0.8,0,1.2-0.3,1.2-0.9c0-0.2-0.1-0.4-0.2-0.5c-0.1-0.1-0.4-0.2-0.6-0.2c-0.2,0-0.4,0-0.6,0.1c-0.2,0.1-0.4,0.2-0.6,0.3
				l-0.4-0.6c0.5-0.4,1-0.5,1.7-0.5c0.5,0,0.9,0.1,1.2,0.3C78.8,164,78.9,164.3,78.9,164.7z"/>
		</g>
		<g id="XMLID_142_">
			<g id="XMLID_143_">
				<path id="XMLID_144_" class="st6" d="M189.1,170h3.6c0.1,0,0.3,0.1,0.4,0.2l0.2,0.2c0.1,0.1,0.2,0.3,0.2,0.5v4.7
					c0,0.2-0.1,0.3-0.2,0.5l-0.2,0.2c-0.1,0.1-0.3,0.2-0.4,0.2h-3.6c-0.1,0-0.3-0.1-0.4-0.2l-0.2-0.2c-0.1-0.1-0.2-0.3-0.2-0.5v-4.7
					c0-0.2,0.1-0.3,0.2-0.5l0.2-0.2C188.8,170.1,188.9,170,189.1,170z M192.8,175.4v-4.4c0-0.1,0-0.2,0-0.2c0,0,0-0.1-0.1-0.1
					c-0.1,0-0.1-0.1-0.1-0.1c0,0-0.1,0-0.2,0h-2.9c-0.1,0-0.2,0-0.2,0c0,0-0.1,0-0.1,0.1c-0.1,0-0.1,0.1-0.1,0.1c0,0,0,0.1,0,0.2
					v4.4c0,0.1,0,0.2,0,0.2c0,0,0,0.1,0.1,0.1s0.1,0.1,0.1,0.1c0,0,0.1,0,0.2,0h2.9c0.1,0,0.2,0,0.2,0c0,0,0.1,0,0.1-0.1
					s0.1-0.1,0.1-0.1C192.8,175.6,192.8,175.5,192.8,175.4z"/>
				<path id="XMLID_147_" class="st6" d="M195.3,171.9l-0.4-0.4l1.3-1.4h1.1v6.4h-0.7v-5.6c0-0.1,0-0.2,0-0.2l0,0L195.3,171.9z"/>
				<path id="XMLID_149_" class="st6" d="M202.3,170h0.7l-4.8,7.2h-0.7L202.3,170z"/>
				<path id="XMLID_151_" class="st6" d="M203.6,173.6l0.4-0.4c0.1-0.1,0.2-0.1,0.3-0.1v0c-0.1,0-0.2,0-0.3-0.1l-0.3-0.2
					c-0.1-0.1-0.1-0.2-0.1-0.3v-1.6c0-0.2,0.1-0.3,0.2-0.5l0.2-0.2c0.1-0.1,0.3-0.2,0.4-0.2h2.8c0.1,0,0.3,0.1,0.4,0.2l0.2,0.2
					c0.1,0.1,0.2,0.3,0.2,0.5v1.6c0,0.1,0,0.2-0.1,0.3l-0.3,0.2c-0.1,0.1-0.2,0.1-0.3,0.1v0c0.1,0,0.2,0,0.3,0.1l0.4,0.4
					c0.1,0.1,0.1,0.2,0.1,0.4v1.6c0,0.2-0.1,0.3-0.2,0.5c0,0-0.1,0.1-0.2,0.2c-0.1,0.1-0.3,0.2-0.4,0.2h-3c-0.1,0-0.3-0.1-0.4-0.2
					c-0.1-0.1-0.2-0.1-0.2-0.2c-0.1-0.1-0.2-0.3-0.2-0.5V174C203.5,173.8,203.5,173.7,203.6,173.6z M206.8,173.5h-1.8
					c-0.1,0-0.2,0-0.2,0c0,0-0.1,0-0.2,0.1l-0.2,0.2c-0.1,0.1-0.1,0.1-0.1,0.1c0,0,0,0.1,0,0.2v1.3c0,0.1,0,0.2,0,0.2
					c0,0,0,0.1,0.1,0.1c0.1,0,0.1,0.1,0.1,0.1c0,0,0.1,0,0.2,0h2.3c0.1,0,0.2,0,0.2,0c0,0,0.1,0,0.1-0.1s0.1-0.1,0.1-0.1
					c0,0,0-0.1,0-0.2v-1.3c0-0.1,0-0.2,0-0.2c0,0-0.1-0.1-0.1-0.1l-0.2-0.2c-0.1-0.1-0.1-0.1-0.2-0.1
					C206.9,173.5,206.9,173.5,206.8,173.5z M206.9,170.7h-2.1c-0.1,0-0.2,0-0.2,0c0,0-0.1,0-0.1,0.1c-0.1,0-0.1,0.1-0.1,0.1
					c0,0,0,0.1,0,0.2v1.2c0,0.1,0,0.2,0,0.2c0,0,0.1,0.1,0.1,0.1l0.2,0.2c0.1,0,0.1,0.1,0.1,0.1c0,0,0.1,0,0.2,0h1.5
					c0.1,0,0.2,0,0.2,0c0,0,0.1,0,0.1-0.1l0.2-0.2c0.1-0.1,0.1-0.1,0.1-0.1c0,0,0-0.1,0-0.2v-1.2c0-0.1,0-0.2,0-0.2
					c0,0,0-0.1-0.1-0.1c-0.1,0-0.1-0.1-0.1-0.1C207.1,170.7,207,170.7,206.9,170.7z"/>
				<path id="XMLID_155_" class="st6" d="M210.8,170h3.6c0.1,0,0.3,0.1,0.4,0.2l0.2,0.2c0.1,0.1,0.2,0.3,0.2,0.5v4.7
					c0,0.2-0.1,0.3-0.2,0.5l-0.2,0.2c-0.1,0.1-0.3,0.2-0.4,0.2h-3.6c-0.1,0-0.3-0.1-0.4-0.2l-0.2-0.2c-0.1-0.1-0.2-0.3-0.2-0.5v-4.7
					c0-0.2,0.1-0.3,0.2-0.5l0.2-0.2C210.5,170.1,210.6,170,210.8,170z M214.5,175.4v-4.4c0-0.1,0-0.2,0-0.2c0,0,0-0.1-0.1-0.1
					c-0.1,0-0.1-0.1-0.1-0.1c0,0-0.1,0-0.2,0h-2.9c-0.1,0-0.2,0-0.2,0c0,0-0.1,0-0.1,0.1c-0.1,0-0.1,0.1-0.1,0.1c0,0,0,0.1,0,0.2
					v4.4c0,0.1,0,0.2,0,0.2c0,0,0,0.1,0.1,0.1s0.1,0.1,0.1,0.1c0,0,0.1,0,0.2,0h2.9c0.1,0,0.2,0,0.2,0c0,0,0.1,0,0.1-0.1
					s0.1-0.1,0.1-0.1C214.5,175.6,214.5,175.5,214.5,175.4z"/>
			</g>
			<g id="XMLID_158_">
				<path id="XMLID_159_" class="st6" d="M171.8,171.7L171.8,171.7C171.9,171.7,171.9,171.7,171.8,171.7l0.8-2.4h0.3l-0.9,2.7h-0.4
					l-0.9-2.7h0.3L171.8,171.7C171.8,171.7,171.8,171.7,171.8,171.7z"/>
				<path id="XMLID_161_" class="st6" d="M173.2,172l0.9-2.7h0.4l0.9,2.7h-0.3l-0.2-0.6h-1.3l-0.2,0.6H173.2z M174.3,169.5
					L174.3,169.5c0,0,0,0.1,0,0.1l-0.5,1.5h1.1l-0.5-1.5C174.3,169.6,174.3,169.6,174.3,169.5z"/>
				<path id="XMLID_164_" class="st6" d="M177.7,171.7v0.3h-1.6v-2.7h0.3v2.4H177.7z"/>
				<path id="XMLID_166_" class="st6" d="M178.1,169.3h0.3v2.7h-0.3V169.3z"/>
				<path id="XMLID_168_" class="st6" d="M179.1,172v-2.7h1.4c0.1,0,0.1,0,0.2,0.1l0.4,0.3c0.1,0.1,0.1,0.1,0.1,0.2v1.6
					c0,0.1,0,0.1-0.1,0.2l-0.4,0.3c-0.1,0.1-0.1,0.1-0.2,0.1H179.1z M180.9,171.3v-1.4c0-0.1,0-0.1-0.1-0.2l-0.2-0.2
					c-0.1-0.1-0.1-0.1-0.2-0.1h-1v2.1h1c0.1,0,0.1,0,0.2-0.1l0.2-0.2C180.8,171.4,180.9,171.4,180.9,171.3z"/>
				<path id="XMLID_171_" class="st6" d="M171.3,173.9h2v0.3h-0.8v2.4h-0.3v-2.4h-0.8V173.9z"/>
				<path id="XMLID_173_" class="st6" d="M175.4,173.9h0.3v2.7h-0.3v-1.2H174v1.2h-0.3v-2.7h0.3v1.2h1.4V173.9z"/>
				<path id="XMLID_175_" class="st6" d="M176.5,173.9h1.4c0.1,0,0.1,0,0.2,0.1l0.1,0.1c0.1,0.1,0.1,0.1,0.1,0.2v0.9
					c0,0.1,0,0.1-0.1,0.2l-0.1,0.1c-0.1,0-0.1,0.1-0.2,0.1h-0.2l0.4,0.6c0,0,0,0.1,0.1,0.1c0,0,0,0,0.1,0.1l0,0c0,0,0.1,0,0.1,0.1
					c0,0,0,0.1,0,0.1v0.1h-0.1c0,0-0.1,0-0.1,0c0,0,0,0-0.1,0l-0.1,0c-0.1,0-0.1-0.1-0.1-0.1l-0.5-0.8h-0.5v1.1h-0.3V173.9z
					 M176.8,174.1v1.1h0.9c0,0,0.1,0,0.1,0c0,0,0,0,0.1,0c0,0,0,0,0,0c0,0,0,0,0-0.1v-0.8c0,0,0-0.1,0-0.1c0,0,0,0,0,0
					c0,0,0,0-0.1,0c0,0,0,0-0.1,0H176.8z"/>
				<path id="XMLID_178_" class="st6" d="M180.8,173.9h0.3v2.3c0,0.1,0,0.1-0.1,0.2l-0.1,0.1c-0.1,0.1-0.1,0.1-0.2,0.1h-1.3
					c-0.1,0-0.1,0-0.2-0.1l-0.1-0.1c-0.1-0.1-0.1-0.1-0.1-0.2v-2.3h0.3v2.2c0,0,0,0.1,0,0.1c0,0,0,0,0,0c0,0,0,0,0.1,0
					c0,0,0,0,0.1,0h1c0,0,0.1,0,0.1,0c0,0,0,0,0.1,0c0,0,0,0,0,0c0,0,0,0,0-0.1V173.9z"/>
			</g>
			<polygon id="XMLID_180_" class="st7" points="183,171.3 183,174.6 185.4,172.9 			"/>
		</g>
	</g>
</g>
</svg>
